<svg width="71" height="70" viewBox="0 0 71 70" fill="none" xmlns="http://www.w3.org/2000/svg">
<path d="M38.8316 25.9967C45.4849 24.2157 50.0384 19.1365 50.0384 13.3309C50.0384 9.71072 48.2999 6.32643 45.1434 3.80221C42.078 1.35016 38.0199 0 33.7174 0C29.4143 0 25.3563 1.35016 22.2909 3.80221C19.1349 6.32643 17.3965 9.71072 17.3965 13.3309C17.3965 16.6177 18.8667 19.7726 21.5363 22.2133C23.9388 24.4101 27.1664 25.8933 30.6918 26.4324C32.4351 29.7025 34.6206 32.0194 37.1949 33.3248C38.1627 33.8154 39.32 33.0038 39.1956 31.931C39.1924 31.9014 38.887 29.2383 38.8316 25.9967ZM37.161 23.5479C36.5179 23.6798 36.0558 24.2448 36.0548 24.9013C36.0521 26.5115 36.1162 28.0281 36.1932 29.2614C34.9329 28.0874 33.8074 26.5088 32.8315 24.5415C32.6231 24.1209 32.2148 23.8344 31.7485 23.7816C25.1447 23.0287 20.1646 18.536 20.1646 13.3309C20.1646 7.50641 26.2444 2.76818 33.7174 2.76818C41.1904 2.76818 47.2697 7.50641 47.2697 13.3309C47.2702 18.1257 43.1131 22.327 37.161 23.5479Z" fill="#80B918"/>
<path d="M34.9986 12.4078C34.7848 11.8897 34.2635 11.5499 33.7045 11.5542C33.1234 11.5585 32.5983 11.9441 32.4103 12.4923C32.2208 13.046 32.4136 13.6799 32.8783 14.0348C33.3356 14.3838 33.9754 14.4128 34.4622 14.1053C35.0223 13.751 35.2518 13.0207 34.9986 12.4078Z" fill="#80B918"/>
<path d="M30.9153 11.7863C30.4419 11.4734 29.8118 11.4826 29.3476 11.8084C28.8731 12.1412 28.6571 12.7616 28.8171 13.3174C28.9776 13.8743 29.4822 14.2809 30.0601 14.3181C30.6455 14.3552 31.1997 14.0068 31.4248 13.4666C31.6747 12.8683 31.4587 12.1455 30.9153 11.7863Z" fill="#80B918"/>
<path d="M38.062 11.7863C37.5875 11.4734 36.9585 11.4831 36.4942 11.8084C36.0187 12.1412 35.8043 12.7611 35.9643 13.3174C36.1237 13.8743 36.6283 14.2809 37.2062 14.318C37.7905 14.3552 38.3479 14.0068 38.5725 13.4666C38.8213 12.8683 38.6048 12.145 38.062 11.7863Z" fill="#80B918"/>
<path d="M29.1225 50.4784C30.4204 47.9617 30.66 45.0901 29.7983 42.393L27.4874 35.1607C26.8664 33.2187 25.7075 31.5072 24.1354 30.2125C21.3376 27.9075 17.6097 27.1885 14.163 28.2898C11.4659 29.1521 9.26587 31.0122 7.96795 33.5289C6.67056 36.0461 6.43037 38.9172 7.29206 41.6143L9.60355 48.8471C9.97353 50.005 10.5261 51.0546 11.2181 51.9761L11.0086 52.6046C4.58473 54.4901 0 61.0847 0 68.6159C0 69.3801 0.619879 70 1.38409 70H28.1202C28.885 70 29.5043 69.3801 29.5043 68.6159C29.5043 63.3908 27.3194 58.5433 23.683 55.4417C26.0344 54.4922 27.9484 52.7554 29.1225 50.4784ZM10.4281 34.7978C11.3872 32.9387 13.0126 31.5637 15.0053 30.9266C15.791 30.6756 16.5962 30.5528 17.3954 30.5528C18.8156 30.5528 20.2153 30.9411 21.4475 31.6897C20.6186 33.1029 19.6509 34.4353 18.5091 35.612C17.3588 36.7969 15.9881 37.8051 14.4366 38.3921C13.9869 38.5623 13.528 38.6635 13.0654 38.7868C12.6846 38.8886 12.3588 39.1547 12.1838 39.508C12.0001 39.8769 11.9926 40.3077 12.159 40.6836C12.1644 40.6955 12.1676 40.7073 12.173 40.7192C12.2371 40.8544 12.313 41.031 12.3927 41.2378C12.8063 42.3198 13.346 44.3173 12.7988 45.6265C12.6065 46.0859 12.2565 46.4505 11.8181 46.6837L9.92883 40.7714C9.29226 38.7788 9.46944 36.6574 10.4281 34.7978ZM19.2437 56.2108L18.7935 57.5609C18.7606 57.6589 18.7235 57.7548 18.682 57.848C18.3912 58.4991 17.8887 59.0258 17.2424 59.3489C16.5035 59.7184 15.665 59.7776 14.8814 59.5164C14.0978 59.2552 13.4623 58.7043 13.0934 57.9654C12.7239 57.2265 12.6647 56.388 12.9259 55.6044L13.4117 54.1481C13.4198 54.154 13.4284 54.1594 13.4365 54.1659C13.5264 54.231 13.6169 54.2946 13.7084 54.3571C13.7203 54.3651 13.7321 54.3738 13.744 54.3818C15.358 55.4762 17.2613 56.123 19.2437 56.2108ZM26.6763 67.2318H2.82904C3.26904 62.2248 6.07061 57.9002 10.0317 55.9436C9.90783 57.0579 10.1163 58.2007 10.6171 59.203C11.3172 60.6032 12.5204 61.6475 14.0057 62.1424C15.4727 62.632 17.0965 62.5162 18.48 61.8252C19.8803 61.1251 20.9245 59.922 21.4195 58.4372L21.7545 57.4328C24.5399 59.7378 26.3333 63.2949 26.6763 67.2318ZM22.0851 53.0807C19.3455 53.9558 16.259 53.2121 14.2066 51.2006C13.6373 50.6426 13.1548 49.9958 12.7816 49.2919C13.8765 48.7943 14.7855 47.945 15.2875 46.8453C16.0673 45.137 15.8276 43.1443 15.4377 41.6633C15.3909 41.4855 15.3219 41.3132 15.2772 41.136C15.2729 41.1199 15.2713 41.1032 15.2719 41.0865C15.2417 41.0445 15.2541 41.0229 15.3085 41.0224C15.3462 40.9938 15.4178 40.982 15.4614 40.9648C15.5557 40.9287 15.6494 40.891 15.7426 40.8517C16.1465 40.6836 16.5412 40.4946 16.9258 40.2867C17.6065 39.9194 18.2506 39.4827 18.8592 39.0066C20.0892 38.0447 21.1674 36.8911 22.1158 35.6535C22.6318 34.9803 23.1106 34.2786 23.5549 33.5558C24.1257 34.2834 24.5652 35.1101 24.8501 36.003L27.1616 43.2353C28.4762 47.3494 26.1986 51.7661 22.0851 53.0807Z" fill="#152C5B" fill-opacity="0.8"/>
<path d="M66.1267 56.4957C66.8069 55.3076 67.1742 53.9521 67.1742 52.5739C67.1742 49.2569 65.133 46.3746 62.1451 45.221L63.2976 41.6143C65.077 36.0467 61.9949 30.0692 56.4267 28.2899C53.7296 27.4276 50.8586 27.6678 48.3419 28.9657C45.8252 30.2637 43.9645 32.4637 43.1023 35.1608L40.7914 42.393C39.9297 45.0901 40.1693 47.9617 41.4672 50.4784C42.6047 52.6849 44.4363 54.3867 46.6886 55.354C43.1545 58.4787 41.0854 63.2142 41.0854 68.3412C41.0854 69.1055 41.7053 69.7253 42.4695 69.7253H54.0377C54.8025 69.7253 55.4218 69.1055 55.4218 68.3412C55.4218 67.577 54.8025 66.9572 54.0377 66.9572H43.9128C44.2085 63.5196 45.5985 60.3846 47.8168 58.0984C48.5487 60.0717 50.2263 61.6174 52.2524 62.1855C52.8324 62.3482 53.4351 62.4311 54.0377 62.4311C57.6945 62.4311 60.6695 59.4561 60.6695 55.7993C60.6695 55.7756 60.669 55.7514 60.6673 55.7277C61.3098 56.0541 61.9286 56.4451 62.5135 56.8969C62.8124 57.129 63.1016 57.3741 63.3784 57.6326C65.8111 59.9069 67.4348 63.2433 67.7612 66.9572H65.1077C64.3435 66.9572 63.7236 67.577 63.7236 68.3412C63.7236 69.1055 64.3435 69.7253 65.1077 69.7253H69.2056C69.9698 69.7253 70.5897 69.1055 70.5897 68.3412C70.5897 63.7624 68.8959 59.5337 66.1267 56.4957ZM61.3007 47.8642C63.1533 48.6511 64.406 50.4795 64.406 52.5739C64.406 53.2676 64.2708 53.9365 64.0091 54.5569C63.33 54.0501 62.6142 53.6074 61.8715 53.2337C61.3217 52.9563 60.753 52.7247 60.1735 52.5179C60.0361 52.4689 59.8967 52.428 59.7583 52.3838C59.6721 52.3569 59.5768 52.3526 59.5326 52.2777C59.4734 52.1775 59.4497 52.037 59.4114 51.9271C60.1008 50.9965 60.6296 49.9635 60.9867 48.8466L61.3007 47.8642ZM49.6102 31.4259C51.4699 30.4672 53.5912 30.2901 55.5844 30.9266C57.5771 31.5637 59.2025 32.9387 60.1616 34.7978C61.1203 36.6574 61.2974 38.7793 60.6609 40.772C60.6124 40.9239 60.5839 41.1167 60.5063 41.2551C60.4982 41.2696 60.4993 41.2852 60.4885 41.2949C60.4401 41.3391 60.2516 41.3396 60.1853 41.3504C59.999 41.3806 59.8116 41.4037 59.6236 41.4204C58.8502 41.4883 58.0661 41.4193 57.3256 41.1813C56.9206 41.0515 56.5301 40.8743 56.165 40.6573C52.8259 38.6743 51.6659 33.6205 51.6551 33.572C51.4607 32.6856 50.4315 32.2138 49.635 32.6575C49.3237 32.831 49.0765 33.1315 48.8008 33.3555C48.4674 33.6264 48.1141 33.8752 47.7404 34.0863C47.3084 34.3298 46.8377 34.5301 46.3439 34.5969C47.086 33.2473 48.2111 32.1481 49.6102 31.4259ZM43.4281 43.2359L45.312 37.3414C46.8167 37.5735 48.3338 37.0242 49.5887 36.2233C49.6135 36.2885 49.6388 36.3537 49.6641 36.4188C50.3599 38.2036 51.6287 40.6637 53.7426 42.3408C55.0308 43.363 56.5813 44.0195 58.2223 44.1751C58.6682 44.2171 59.1179 44.2247 59.5649 44.2004C59.4007 44.7148 58.7673 46.6961 58.6154 47.1727C58.4113 47.8104 58.2191 48.4475 57.9282 49.0528C57.6358 49.6609 57.2561 50.2317 56.8145 50.7418C55.3415 52.4414 53.183 53.4437 50.9141 53.4523C50.0992 53.4534 49.2806 53.329 48.5046 53.0807C44.3911 51.7661 42.1135 47.3494 43.4281 43.2359ZM54.0377 59.6629C52.5378 59.6629 51.1397 58.7582 50.5198 57.3935C50.3481 57.0159 50.2371 56.6109 50.1946 56.1984C50.5737 56.2243 50.9555 56.2275 51.3352 56.2113C53.4647 56.1252 55.5225 55.3976 57.2378 54.1126L57.8954 56.0148C57.7828 58.0451 56.0955 59.6629 54.0377 59.6629Z" fill="#152C5B" fill-opacity="0.8"/>
<path d="M60.3388 67.1898C59.8391 66.8543 59.1578 66.8888 58.6925 67.2717C58.2649 67.6234 58.0861 68.2126 58.2476 68.7425C58.4183 69.3037 58.9391 69.7038 59.5256 69.7248C60.1029 69.7448 60.6464 69.385 60.858 68.8491C61.095 68.2486 60.8742 67.5485 60.3388 67.1898Z" fill="#152C5B" fill-opacity="0.8"/>
</svg>
