<svg width="59" height="70" viewBox="0 0 59 70" fill="none" xmlns="http://www.w3.org/2000/svg">
<path d="M7.74489 60.5333C7.96332 61.061 8.50805 61.4097 9.07896 61.3798C9.64399 61.3499 10.1449 60.967 10.3185 60.4287C10.4947 59.8818 10.3014 59.2703 9.84693 58.92C9.38658 58.5659 8.73343 58.545 8.25011 58.8671C7.71284 59.2254 7.49869 59.9363 7.74489 60.5333Z" fill="#152C5B"/>
<path d="M19.1032 23.8292H33.4303C34.1882 23.8292 34.8029 23.2145 34.8029 22.4567C34.8029 21.6983 34.1882 21.0842 33.4303 21.0842H19.1032C18.3448 21.0842 17.7307 21.6983 17.7307 22.4567C17.7307 23.2145 18.3448 23.8292 19.1032 23.8292Z" fill="#80B918"/>
<path d="M37.6638 22.9816C37.8833 23.5125 38.4238 23.8538 38.9979 23.827C39.5656 23.8003 40.0601 23.4132 40.2363 22.8759C40.4147 22.3333 40.2203 21.7133 39.7658 21.3677C39.3023 21.0147 38.655 20.9944 38.169 21.3154C37.628 21.6732 37.4176 22.3856 37.6638 22.9816Z" fill="#80B918"/>
<path d="M19.1032 30.7212H38.9306C39.689 30.7212 40.3031 30.107 40.3031 29.3487C40.3031 28.5908 39.689 27.9761 38.9306 27.9761H19.1032C18.3448 27.9761 17.7307 28.5908 17.7307 29.3487C17.7307 30.107 18.3448 30.7212 19.1032 30.7212Z" fill="#80B918"/>
<path d="M19.1032 37.6138H38.9306C39.689 37.6138 40.3031 36.9991 40.3031 36.2412C40.3031 35.4834 39.689 34.8687 38.9306 34.8687H19.1032C18.3448 34.8687 17.7307 35.4834 17.7307 36.2412C17.7307 36.9991 18.3448 37.6138 19.1032 37.6138Z" fill="#80B918"/>
<path d="M58.0557 28.0824C58.0541 27.7171 57.8997 27.3545 57.637 27.1008L50.1816 19.8991V9.4492C50.1816 8.69137 49.5669 8.07667 48.809 8.07667H37.9431L29.9814 0.385722C29.4495 -0.128574 28.6062 -0.128574 28.0743 0.385722L20.1126 8.07667H9.24666C8.4883 8.07667 7.87413 8.69137 7.87413 9.4492V19.8991L0.4187 27.1003C0.154876 27.3556 0 27.7203 0 28.0878V68.6275C0 69.3741 0.625914 70 1.37253 70H56.6832C57.4298 70 58.0557 69.3736 58.0557 68.6275V28.0878C58.0552 28.0862 58.0552 28.084 58.0557 28.0824ZM55.3106 65.0098L39.3562 47.011L55.3106 31.3573V65.0098ZM6.56035 62.7748C5.99318 62.2717 5.12588 62.324 4.62279 62.8917L2.74505 65.0098V31.3573L18.6995 47.0105L11.3637 55.2862C10.8611 55.8534 10.9134 56.7207 11.4806 57.2238C11.7418 57.4555 12.0665 57.5693 12.3906 57.5693C12.7693 57.5693 13.1469 57.4128 13.4182 57.1068L20.661 48.9357L28.0663 56.201C28.5934 56.718 29.4618 56.718 29.9883 56.201L37.3936 48.9357L53.6326 67.255H4.42306L6.67731 64.7123C7.17986 64.1446 7.12752 63.2773 6.56035 62.7748ZM54.7157 28.0953L50.1816 32.5439V23.7155L54.7157 28.0953ZM29.0276 3.28084L33.9922 8.07667H24.0635L29.0276 3.28084ZM10.6192 10.8217H47.4365V35.2372L29.0276 53.2985L10.6192 35.2372V10.8217ZM7.87413 23.716V32.5439L3.33999 28.0953L7.87413 23.716Z" fill="#152C5B" fill-opacity="0.8"/>
</svg>
