<svg width="70" height="70" viewBox="0 0 70 70" fill="none" xmlns="http://www.w3.org/2000/svg">
<path d="M55.127 41.2367L69.2379 34.2277C69.7404 33.9778 70.0406 33.448 69.9957 32.8889C69.9514 32.3297 69.5706 31.8544 69.0355 31.6878L46.1565 24.5736C45.4323 24.3487 44.6632 24.753 44.4384 25.4767C44.213 26.2003 44.6173 26.9699 45.341 27.1947L64.9505 33.2921L52.1956 39.6276C51.7998 39.8241 51.5232 40.199 51.4516 40.6354C51.3801 41.0712 51.5232 41.515 51.8356 41.8279L66.6349 56.6266L56.6261 66.6349L41.8274 51.8356C41.515 51.5232 41.0717 51.3811 40.6348 51.4516C40.199 51.5232 39.8241 51.7998 39.6276 52.1956L33.2921 64.9505L19.0055 19.0055L34.8382 23.929C35.5624 24.1538 36.3314 23.7495 36.5568 23.0259C36.7816 22.3017 36.3773 21.5327 35.6537 21.3073L17.327 15.6089C16.8399 15.4572 16.3096 15.5881 15.9491 15.9485C15.5881 16.3096 15.4572 16.8399 15.6089 17.3269L31.6878 69.0349C31.8539 69.5706 32.3297 69.9509 32.8889 69.9957C32.9257 69.9984 32.962 70 32.9989 70C33.5164 70 33.9944 69.7073 34.2277 69.2379L41.2367 55.127L55.6557 69.546C56.1919 70.0822 57.0608 70.0822 57.597 69.546L69.5466 57.5965C70.0828 57.0608 70.0828 56.1919 69.5466 55.6557L55.127 41.2367Z" fill="#152C5B" fill-opacity="0.8"/>
<path d="M6.89682 4.95552C6.36063 4.41986 5.49171 4.41986 4.95552 4.95552C4.41933 5.49171 4.41933 6.36062 4.95552 6.89682L8.44452 10.3858C8.71262 10.6539 9.06403 10.788 9.41544 10.788C9.76631 10.788 10.1177 10.6539 10.3858 10.3858C10.922 9.85015 10.922 8.98071 10.3858 8.44505L6.89682 4.95552Z" fill="#80B918"/>
<path d="M24.4235 10.788C24.7744 10.788 25.1258 10.6539 25.3939 10.3858L28.8829 6.89682C29.4191 6.36062 29.4191 5.49171 28.8829 4.95552C28.3472 4.41986 27.4783 4.41986 26.9421 4.95552L23.4526 8.44505C22.9169 8.98071 22.9169 9.85015 23.4526 10.3858C23.7207 10.6539 24.0721 10.788 24.4235 10.788Z" fill="#80B918"/>
<path d="M8.44452 23.4526L4.95552 26.9421C4.41933 27.4783 4.41933 28.3472 4.95552 28.8834C5.22362 29.151 5.57449 29.2856 5.9259 29.2856C6.27731 29.2856 6.62819 29.151 6.89629 28.8834L10.3858 25.3939C10.922 24.8582 10.922 23.9888 10.3858 23.4526C9.84962 22.9169 8.98125 22.9169 8.44452 23.4526Z" fill="#80B918"/>
<path d="M16.9195 7.67975C17.6773 7.67975 18.292 7.06505 18.292 6.30722V1.37253C18.292 0.6147 17.6773 0 16.9195 0C16.1617 0 15.547 0.6147 15.547 1.37253V6.30722C15.547 7.06505 16.1611 7.67975 16.9195 7.67975Z" fill="#80B918"/>
<path d="M7.67975 16.9195C7.67975 16.1616 7.06505 15.5469 6.30722 15.5469H1.37253C0.6147 15.5469 0 16.1616 0 16.9195C0 17.6773 0.6147 18.292 1.37253 18.292H6.30722C7.06505 18.292 7.67975 17.6773 7.67975 16.9195Z" fill="#80B918"/>
<path d="M39.2217 24.7701C39.4444 25.3085 40.0004 25.6508 40.5798 25.6145C41.1614 25.5776 41.6624 25.1616 41.8146 24.6009C41.9652 24.047 41.7403 23.4377 41.2656 23.1146C40.8073 22.8027 40.1905 22.7952 39.7285 23.1039C39.1908 23.4638 38.9745 24.1715 39.2217 24.7701Z" fill="#152C5B" fill-opacity="0.8"/>
</svg>
